<svg width="80" height="80" viewBox="0 0 80 80" fill="none" xmlns="http://www.w3.org/2000/svg">
<path d="M28.3736 12.5034C27.8992 12.9768 27.5228 13.5392 27.266 14.1583C27.0091 14.7774 26.877 15.4411 26.877 16.1113C26.877 16.7816 27.0091 17.4453 27.266 18.0644C27.5228 18.6835 27.8992 19.2458 28.3736 19.7193L48.2302 39.5759L28.3736 59.4325C27.4167 60.3894 26.8791 61.6872 26.8791 63.0404C26.8791 64.3937 27.4167 65.6915 28.3736 66.6484C29.3305 67.6053 30.6283 68.1429 31.9815 68.1429C33.3348 68.1429 34.6326 67.6053 35.5895 66.6484L59.0796 43.1583C59.5541 42.6848 60 42.238 60.6667 41.5713C61.3334 40.9046 62 40.2415 62 39.5713C62 38.901 61.3334 38.238 60.6667 37.5713C60 36.9046 59.5541 36.4158 59.0796 35.9423L35.5895 12.4522C33.6448 10.5075 30.3695 10.5075 28.3736 12.5034Z" fill="white"/>
</svg>
