<svg width="676" height="866" viewBox="0 0 676 866" fill="none" xmlns="http://www.w3.org/2000/svg">
<path d="M337.999 866C277.012 814.177 220.481 757.363 169 696.153C91.7427 604.23 4.24379e-05 467.333 4.24379e-05 336.881C-0.0334629 270.258 19.7734 205.123 56.9139 149.718C94.0545 94.3139 146.859 51.1306 208.645 25.6338C270.431 0.136932 338.422 -6.5274 404.011 6.48419C469.601 19.4958 529.841 51.5984 577.109 98.7293C608.58 129.941 633.524 167.06 650.498 207.938C667.472 248.817 676.14 292.643 675.998 336.881C675.998 467.333 584.256 604.23 506.999 696.153C455.517 757.363 398.987 814.176 337.999 866ZM337.999 192.576C299.581 192.576 262.736 207.779 235.57 234.842C208.404 261.904 193.142 298.609 193.142 336.881C193.142 375.153 208.404 411.858 235.57 438.92C262.736 465.983 299.581 481.186 337.999 481.186C376.418 481.186 413.262 465.983 440.428 438.92C467.594 411.858 482.856 375.153 482.856 336.881C482.856 298.609 467.594 261.904 440.428 234.842C413.262 207.779 376.418 192.576 337.999 192.576Z" fill="#F4F4F4"/>
</svg>
