<?xml version="1.0" encoding="utf-8"?>
<!-- Generator: Adobe Illustrator 24.1.1, SVG Export Plug-In . SVG Version: 6.00 Build 0)  -->
<svg version="1.1" id="Layer_1" xmlns="http://www.w3.org/2000/svg" xmlns:xlink="http://www.w3.org/1999/xlink" x="0px" y="0px"
	 viewBox="0 0 200 80" style="enable-background:new 0 0 200 80;" xml:space="preserve">
<style type="text/css">
	.st0{fill:#494949;}
	.st1{fill:#333333;}
</style>
<g>
	<path class="st0" d="M101.17,58.82c-0.49,0.53-0.98,1.06-1.5,1.58c-0.01,0-0.01,0.01-0.02,0.01c-0.58,0.58-1.17,1.13-1.75,1.65
		l-3.26-3.27c0.58-0.51,1.17-1.06,1.77-1.66c0.03-0.02,0.05-0.05,0.08-0.08c0.5-0.49,0.97-1,1.43-1.5L101.17,58.82z"/>
	<path class="st1" d="M93.63,59.67c-2.38,2.05-3.5,2.64-4.73,3.41c-2.66-1.64-9.68-6.62-13.47-13.93c-0.34-0.62-0.57-1.18-0.57-1.18
		c-1.84,1.76-4.04,2.14-4.04,2.14c0.12,0.36,0.59,1.25,0.59,1.25c1.63,3.17,3.88,6.22,6.75,9.07c4.75,4.72,9.47,7.25,9.67,7.35
		c0.34,0.18,0.71,0.27,1.08,0.27s0.74-0.09,1.08-0.27c0.17-0.09,2.54-1.2,6.88-4.81L93.63,59.67z"/>
	<path class="st0" d="M42.25,39.12V20.38h-4.61v18.75c0,5.44,4.43,9.87,9.87,9.87h7.56v-4.61h-7.56
		C44.61,44.38,42.25,42.02,42.25,39.12z"/>
	<path class="st0" d="M116.73,39.13V20.38h-4.61v18.75c0,5.44,4.43,9.87,9.87,9.87h7.56v-4.61h-7.56
		C119.08,44.39,116.73,42.03,116.73,39.13z"/>
	<path class="st0" d="M140.74,29.26c-5.44,0-9.87,4.43-9.87,9.87c0,5.44,4.43,9.87,9.87,9.87v-0.01h2.63h2.63h4.61v-4.6V39.3
		c0-0.06,0.01-0.12,0.01-0.18C150.61,33.68,146.18,29.26,140.74,29.26z M145.99,39.12v5.26h-2.63h-2.63c-2.9,0-5.26-2.36-5.26-5.26
		c0-2.9,2.36-5.26,5.26-5.26c2.85,0,5.18,2.28,5.26,5.11C146,39.03,145.99,39.08,145.99,39.12z"/>
	<path class="st0" d="M163.13,29.26L163.13,29.26l-2.63,0.01v-0.01h-2.63v-8.87h-4.61v18.75c0,5.44,4.43,9.87,9.87,9.87
		c5.44,0,9.87-4.43,9.87-9.87C173,33.68,168.57,29.26,163.13,29.26z M163.13,44.39c-2.9,0-5.26-2.36-5.26-5.26v-5.26h2.63h2.63
		c2.9,0,5.26,2.36,5.26,5.26C168.39,42.03,166.03,44.39,163.13,44.39z"/>
	<path class="st0" d="M76.24,34.38c-0.31-0.56-0.67-1.08-1.07-1.57c-0.19-0.23-0.39-0.45-0.59-0.65c-0.55-0.56-1.18-1.05-1.86-1.46
		c-0.42-0.26-0.87-0.49-1.33-0.68c-0.25-0.1-0.5-0.19-0.76-0.27c-0.18-0.06-0.37-0.11-0.56-0.16c-0.09-0.02-0.18-0.04-0.26-0.07
		c-0.17-0.04-0.35-0.07-0.52-0.1c-0.12-0.02-0.24-0.03-0.36-0.05c-0.17-0.02-0.33-0.04-0.49-0.06c-0.16-0.01-0.32-0.01-0.48-0.02
		c-0.12,0-0.24-0.01-0.37-0.01c-1.36,0-2.66,0.28-3.84,0.78c-3.54,1.5-6.03,5.01-6.03,9.08c0,0,0,0,0,0v0
		c0,5.44,4.43,9.87,9.87,9.87c0.9,0,1.77-0.12,2.6-0.35c0.33-0.09,0.65-0.19,0.97-0.32c1.15-0.45,2.2-1.11,3.1-1.94
		c0.26-0.23,0.51-0.49,0.75-0.76c1.52-1.74,2.45-4.02,2.45-6.5C77.45,37.41,77.01,35.8,76.24,34.38z M68.87,44.21
		c-0.42,0.11-0.85,0.16-1.3,0.16c-1.98,0-3.72-1.11-4.61-2.75c-0.41-0.74-0.63-1.59-0.63-2.5c0-2.9,2.36-5.26,5.26-5.26
		c0,0,0,0,0.01,0c0.22,0,0.44,0.02,0.66,0.05c0.05,0,0.1,0.01,0.14,0.02c0.19,0.03,0.37,0.07,0.55,0.12c0.01,0,0.03,0.01,0.04,0.01
		c0.02,0.01,0.04,0.01,0.07,0.02c0.11,0.03,0.22,0.07,0.33,0.11c0.01,0,0.03,0.01,0.05,0.02c0.25,0.09,0.49,0.21,0.71,0.34
		c0.07,0.03,0.13,0.07,0.2,0.12c0.16,0.1,0.32,0.21,0.47,0.32c0.07,0.05,0.14,0.11,0.2,0.17c0.08,0.07,0.15,0.14,0.23,0.21
		c0.06,0.05,0.12,0.11,0.17,0.17c0.05,0.06,0.11,0.12,0.16,0.18c0.03,0.04,0.07,0.08,0.11,0.13c0.04,0.05,0.08,0.1,0.12,0.16
		c0.04,0.06,0.09,0.12,0.13,0.18c0.03,0.05,0.06,0.1,0.1,0.15c0.03,0.05,0.07,0.11,0.1,0.17c0.04,0.07,0.08,0.15,0.12,0.22
		c0.05,0.1,0.1,0.2,0.14,0.3c0.03,0.08,0.06,0.16,0.09,0.24c0.03,0.08,0.06,0.16,0.08,0.24c0,0,0,0.01,0,0.02
		c0.04,0.11,0.07,0.23,0.1,0.35c0.06,0.25,0.11,0.52,0.13,0.79c0.01,0.15,0.02,0.3,0.02,0.45C72.83,41.57,71.14,43.63,68.87,44.21z"
		/>
	<path class="st0" d="M92.16,49.81l3.72-3.72c3.85-3.85,3.85-10.1,0-13.95c-3.85-3.85-10.1-3.85-13.95,0
		c-3.85,3.85-3.85,10.1,0,13.95v0l12.71,12.7l3.26,3.27c0.58-0.52,1.16-1.06,1.75-1.65c0.01,0,0.01-0.01,0.02-0.01
		c0.52-0.52,1.02-1.05,1.5-1.58L92.16,49.81z M85.18,42.84c-0.99-0.99-1.54-2.31-1.54-3.72s0.54-2.72,1.54-3.72
		c0.99-0.99,2.31-1.54,3.72-1.54c1.41,0,2.73,0.55,3.72,1.54c0.99,0.99,1.54,2.31,1.54,3.72s-0.54,2.73-1.54,3.72l-3.72,3.72
		L85.18,42.84z"/>
	<g>
		<path class="st1" d="M88.9,18.58c-6.66,0-12.58,3.18-16.34,8.11l-0.32,0.44c0,0-0.71,1-0.91,1.33c0,0,1.75,0.26,3.97,2.38
			c0,0,0.49-0.76,0.7-1.04c0,0,0.22-0.31,0.39-0.53c2.92-3.7,7.44-6.08,12.51-6.08c8.79,0,15.94,7.15,15.94,15.94
			c0,5.09-1.81,9.98-5.37,14.57c0,0-0.45,0.55-0.69,0.79l3.35,3.26c0,0,0.35-0.43,0.62-0.77c4.4-5.52,6.7-11.62,6.7-17.85
			C109.44,27.79,100.23,18.58,88.9,18.58z"/>
		<path class="st1" d="M74.4,31.99c0.06,0.06,0.12,0.11,0.17,0.17C74.57,32.16,74.51,32.1,74.4,31.99z"/>
		<path class="st1" d="M72.55,26.7c0,0,0.01-0.01,0.01-0.01l0,0C72.56,26.69,72.55,26.69,72.55,26.7z"/>
	</g>
</g>
</svg>
