<?xml version="1.0" encoding="utf-8"?>
<!-- Generator: Adobe Illustrator 24.1.1, SVG Export Plug-In . SVG Version: 6.00 Build 0)  -->
<svg version="1.1" id="Layer_1" xmlns="http://www.w3.org/2000/svg" xmlns:xlink="http://www.w3.org/1999/xlink" x="0px" y="0px"
	 viewBox="0 0 200 80" style="enable-background:new 0 0 200 80;" xml:space="preserve">
<style type="text/css">
	.st0{fill:#BE3331;}
	.st1{fill:#1F1F1E;}
</style>
<path class="st0" d="M97.03,60.97c-0.61,0.68-1.25,1.35-1.91,2.01c-0.01,0.01-0.01,0.01-0.03,0.02c-0.74,0.74-1.48,1.43-2.21,2.09
	l-4.13-4.14c0.74-0.65,1.49-1.35,2.24-2.1c0.04-0.03,0.07-0.06,0.1-0.1c0.63-0.63,1.23-1.27,1.81-1.91L97.03,60.97z"/>
<path class="st1" d="M22.4,36.02V12.28h-5.84v23.75c0,6.89,5.61,12.5,12.5,12.5h9.58v-5.84h-9.58C25.39,42.68,22.4,39.69,22.4,36.02
	z"/>
<path class="st1" d="M116.73,36.03V12.28h-5.84v23.75c0,6.89,5.61,12.5,12.5,12.5h9.58v-5.84h-9.58
	C119.72,42.69,116.73,39.7,116.73,36.03z"/>
<path class="st1" d="M147.14,23.52c-6.89,0-12.5,5.61-12.5,12.5s5.61,12.5,12.5,12.5v-0.01h3.33h3.33h5.84v-5.83v-6.44
	c0.01-0.07,0.01-0.15,0.01-0.22C159.64,29.13,154.04,23.52,147.14,23.52z M153.8,36.02v6.67h-3.33h-3.33
	c-3.67,0-6.66-2.99-6.66-6.66c0-3.67,2.99-6.66,6.66-6.66c3.61,0,6.56,2.89,6.66,6.47C153.8,35.9,153.8,35.96,153.8,36.02z"/>
<path class="st1" d="M175.5,23.52L175.5,23.52l-3.33,0.01v-0.01h-3.34V12.28H163v23.74c0,6.89,5.61,12.5,12.5,12.5
	c6.89,0,12.5-5.61,12.5-12.5S182.39,23.52,175.5,23.52z M175.5,42.69c-3.67,0-6.66-2.99-6.66-6.66v-6.66h3.34h3.33
	c3.67,0,6.66,2.99,6.66,6.66C182.16,39.7,179.17,42.69,175.5,42.69z"/>
<path class="st1" d="M65.45,30.02c-0.39-0.71-0.85-1.37-1.36-1.99c-0.24-0.29-0.49-0.56-0.75-0.83c-0.7-0.71-1.49-1.34-2.35-1.86
	c-0.53-0.33-1.1-0.61-1.68-0.86c-0.31-0.13-0.63-0.24-0.97-0.34c-0.23-0.08-0.47-0.14-0.71-0.21c-0.11-0.03-0.23-0.06-0.33-0.09
	c-0.22-0.05-0.44-0.09-0.66-0.13c-0.15-0.03-0.3-0.04-0.45-0.07c-0.21-0.03-0.42-0.06-0.63-0.08c-0.2-0.01-0.4-0.02-0.6-0.03
	c-0.16,0-0.31-0.02-0.47-0.02c-1.72,0-3.37,0.35-4.86,0.98c-4.48,1.9-7.63,6.34-7.63,11.5c0,0.01,0,0.01,0,0.01v0.01
	c0,6.89,5.61,12.5,12.5,12.5c1.14,0,2.24-0.16,3.3-0.45c0.42-0.11,0.83-0.24,1.23-0.4c1.46-0.57,2.79-1.4,3.92-2.46
	c0.33-0.29,0.65-0.62,0.95-0.96c1.93-2.2,3.1-5.09,3.1-8.24C66.99,33.85,66.43,31.81,65.45,30.02z M56.12,42.46
	c-0.53,0.14-1.08,0.21-1.65,0.21c-2.51,0-4.71-1.41-5.84-3.48c-0.51-0.94-0.8-2.02-0.8-3.17c0-3.67,2.99-6.66,6.66-6.66
	c0.01,0,0.01,0,0.01,0c0.28,0,0.56,0.03,0.83,0.06c0.06,0.01,0.13,0.02,0.18,0.03c0.24,0.04,0.47,0.09,0.7,0.15
	c0.02,0.01,0.04,0.01,0.06,0.01c0.03,0.01,0.06,0.02,0.09,0.03c0.14,0.04,0.28,0.09,0.41,0.14c0.02,0.01,0.04,0.02,0.06,0.03
	c0.31,0.12,0.61,0.26,0.9,0.43c0.09,0.04,0.17,0.09,0.25,0.15c0.21,0.13,0.4,0.26,0.59,0.41c0.09,0.07,0.18,0.14,0.26,0.21
	c0.1,0.09,0.19,0.18,0.29,0.27c0.08,0.07,0.15,0.14,0.22,0.22c0.07,0.08,0.14,0.15,0.2,0.23c0.04,0.05,0.09,0.11,0.14,0.16
	c0.05,0.06,0.1,0.13,0.15,0.2c0.06,0.08,0.11,0.15,0.16,0.23c0.04,0.06,0.08,0.13,0.13,0.19c0.04,0.07,0.09,0.14,0.13,0.21
	c0.06,0.09,0.11,0.19,0.16,0.28c0.06,0.13,0.13,0.25,0.18,0.38c0.04,0.1,0.08,0.2,0.12,0.3c0.04,0.1,0.08,0.2,0.11,0.3
	c0,0.01,0.01,0.02,0.01,0.03c0.05,0.14,0.09,0.29,0.13,0.44c0.08,0.32,0.14,0.66,0.16,1c0.02,0.19,0.03,0.38,0.03,0.56
	C61.13,39.11,59,41.73,56.12,42.46z"/>
<path class="st1" d="M85.61,49.56l4.71-4.71c4.87-4.87,4.87-12.79,0-17.66c-4.87-4.87-12.79-4.87-17.66,0
	c-4.87,4.87-4.87,12.79,0,17.66v0.01l16.1,16.09l4.13,4.14c0.73-0.66,1.47-1.35,2.21-2.09c0.01-0.01,0.01-0.01,0.03-0.02
	c0.66-0.66,1.29-1.33,1.91-2.01L85.61,49.56z M76.78,40.72c-1.26-1.25-1.95-2.93-1.95-4.71c0-1.78,0.69-3.45,1.95-4.71
	c1.26-1.25,2.93-1.95,4.71-1.95c1.78,0,3.45,0.7,4.71,1.95c1.26,1.26,1.95,2.93,1.95,4.71c0,1.78-0.69,3.45-1.95,4.71l-4.71,4.71
	L76.78,40.72z"/>
<path class="st0" d="M87.48,62.04c-3.02,2.6-4.43,3.34-5.99,4.31c-3.36-2.08-12.26-8.38-17.06-17.64c-0.43-0.78-0.72-1.5-0.72-1.5
	c-2.33,2.23-5.12,2.71-5.12,2.71c0.15,0.46,0.75,1.58,0.75,1.58c2.06,4.02,4.92,7.87,8.55,11.48c6.02,5.98,11.99,9.18,12.24,9.31
	c0.43,0.23,0.9,0.34,1.37,0.34c0.47,0,0.94-0.11,1.37-0.34c0.22-0.11,3.22-1.52,8.71-6.09L87.48,62.04z"/>
<g>
	<path class="st0" d="M81.49,10c-8.43,0-15.94,4.03-20.7,10.27l-0.4,0.55c0,0-0.9,1.27-1.15,1.69c0,0,2.21,0.33,5.03,3.01
		c0,0,0.63-0.97,0.89-1.32c0,0,0.28-0.39,0.49-0.67c3.7-4.68,9.43-7.7,15.84-7.7c11.13,0,20.19,9.06,20.19,20.18
		c0,6.45-2.29,12.64-6.81,18.46c0,0-0.58,0.69-0.88,1l4.24,4.12c0,0,0.45-0.54,0.78-0.97c5.57-6.99,8.49-14.72,8.49-22.61
		C107.51,21.67,95.84,10,81.49,10z"/>
	<path class="st0" d="M63.12,26.99c0.07,0.07,0.15,0.14,0.22,0.22C63.34,27.21,63.26,27.12,63.12,26.99z"/>
	<path class="st0" d="M60.78,20.29c0-0.01,0.01-0.01,0.01-0.02c0,0,0,0,0,0C60.79,20.27,60.78,20.28,60.78,20.29z"/>
</g>
<path class="st0" d="M97.03,60.97c-0.61,0.68-1.25,1.35-1.91,2.01c-0.01,0.01-0.01,0.01-0.03,0.02c-0.74,0.74-1.48,1.43-2.21,2.09
	l-4.13-4.14c0.74-0.65,1.49-1.35,2.24-2.1c0.04-0.03,0.07-0.06,0.1-0.1c0.63-0.63,1.23-1.27,1.81-1.91L97.03,60.97z"/>
<path class="st1" d="M22.4,36.02V12.28h-5.84v23.75c0,6.89,5.61,12.5,12.5,12.5h9.58v-5.84h-9.58C25.39,42.68,22.4,39.69,22.4,36.02
	z"/>
<path class="st1" d="M116.73,36.03V12.28h-5.84v23.75c0,6.89,5.61,12.5,12.5,12.5h9.58v-5.84h-9.58
	C119.72,42.69,116.73,39.7,116.73,36.03z"/>
<path class="st1" d="M147.14,23.52c-6.89,0-12.5,5.61-12.5,12.5s5.61,12.5,12.5,12.5v-0.01h3.33h3.33h5.84v-5.83v-6.44
	c0.01-0.07,0.01-0.15,0.01-0.22C159.64,29.13,154.04,23.52,147.14,23.52z M153.8,36.02v6.67h-3.33h-3.33
	c-3.67,0-6.66-2.99-6.66-6.66c0-3.67,2.99-6.66,6.66-6.66c3.61,0,6.56,2.89,6.66,6.47C153.8,35.9,153.8,35.96,153.8,36.02z"/>
<path class="st1" d="M175.5,23.52L175.5,23.52l-3.33,0.01v-0.01h-3.34V12.28H163v23.74c0,6.89,5.61,12.5,12.5,12.5
	c6.89,0,12.5-5.61,12.5-12.5S182.39,23.52,175.5,23.52z M175.5,42.69c-3.67,0-6.66-2.99-6.66-6.66v-6.66h3.34h3.33
	c3.67,0,6.66,2.99,6.66,6.66C182.16,39.7,179.17,42.69,175.5,42.69z"/>
<path class="st1" d="M65.45,30.02c-0.39-0.71-0.85-1.37-1.36-1.99c-0.24-0.29-0.49-0.56-0.75-0.83c-0.7-0.71-1.49-1.34-2.35-1.86
	c-0.53-0.33-1.1-0.61-1.68-0.86c-0.31-0.13-0.63-0.24-0.97-0.34c-0.23-0.08-0.47-0.14-0.71-0.21c-0.11-0.03-0.23-0.06-0.33-0.09
	c-0.22-0.05-0.44-0.09-0.66-0.13c-0.15-0.03-0.3-0.04-0.45-0.07c-0.21-0.03-0.42-0.06-0.63-0.08c-0.2-0.01-0.4-0.02-0.6-0.03
	c-0.16,0-0.31-0.02-0.47-0.02c-1.72,0-3.37,0.35-4.86,0.98c-4.48,1.9-7.63,6.34-7.63,11.5c0,0.01,0,0.01,0,0.01v0.01
	c0,6.89,5.61,12.5,12.5,12.5c1.14,0,2.24-0.16,3.3-0.45c0.42-0.11,0.83-0.24,1.23-0.4c1.46-0.57,2.79-1.4,3.92-2.46
	c0.33-0.29,0.65-0.62,0.95-0.96c1.93-2.2,3.1-5.09,3.1-8.24C66.99,33.85,66.43,31.81,65.45,30.02z M56.12,42.46
	c-0.53,0.14-1.08,0.21-1.65,0.21c-2.51,0-4.71-1.41-5.84-3.48c-0.51-0.94-0.8-2.02-0.8-3.17c0-3.67,2.99-6.66,6.66-6.66
	c0.01,0,0.01,0,0.01,0c0.28,0,0.56,0.03,0.83,0.06c0.06,0.01,0.13,0.02,0.18,0.03c0.24,0.04,0.47,0.09,0.7,0.15
	c0.02,0.01,0.04,0.01,0.06,0.01c0.03,0.01,0.06,0.02,0.09,0.03c0.14,0.04,0.28,0.09,0.41,0.14c0.02,0.01,0.04,0.02,0.06,0.03
	c0.31,0.12,0.61,0.26,0.9,0.43c0.09,0.04,0.17,0.09,0.25,0.15c0.21,0.13,0.4,0.26,0.59,0.41c0.09,0.07,0.18,0.14,0.26,0.21
	c0.1,0.09,0.19,0.18,0.29,0.27c0.08,0.07,0.15,0.14,0.22,0.22c0.07,0.08,0.14,0.15,0.2,0.23c0.04,0.05,0.09,0.11,0.14,0.16
	c0.05,0.06,0.1,0.13,0.15,0.2c0.06,0.08,0.11,0.15,0.16,0.23c0.04,0.06,0.08,0.13,0.13,0.19c0.04,0.07,0.09,0.14,0.13,0.21
	c0.06,0.09,0.11,0.19,0.16,0.28c0.06,0.13,0.13,0.25,0.18,0.38c0.04,0.1,0.08,0.2,0.12,0.3c0.04,0.1,0.08,0.2,0.11,0.3
	c0,0.01,0.01,0.02,0.01,0.03c0.05,0.14,0.09,0.29,0.13,0.44c0.08,0.32,0.14,0.66,0.16,1c0.02,0.19,0.03,0.38,0.03,0.56
	C61.13,39.11,59,41.73,56.12,42.46z"/>
<path class="st1" d="M85.61,49.56l4.71-4.71c4.87-4.87,4.87-12.79,0-17.66c-4.87-4.87-12.79-4.87-17.66,0
	c-4.87,4.87-4.87,12.79,0,17.66v0.01l16.1,16.09l4.13,4.14c0.73-0.66,1.47-1.35,2.21-2.09c0.01-0.01,0.01-0.01,0.03-0.02
	c0.66-0.66,1.29-1.33,1.91-2.01L85.61,49.56z M76.78,40.72c-1.26-1.25-1.95-2.93-1.95-4.71c0-1.78,0.69-3.45,1.95-4.71
	c1.26-1.25,2.93-1.95,4.71-1.95c1.78,0,3.45,0.7,4.71,1.95c1.26,1.26,1.95,2.93,1.95,4.71c0,1.78-0.69,3.45-1.95,4.71l-4.71,4.71
	L76.78,40.72z"/>
<path class="st0" d="M87.48,62.04c-3.02,2.6-4.43,3.34-5.99,4.31c-3.36-2.08-12.26-8.38-17.06-17.64c-0.43-0.78-0.72-1.5-0.72-1.5
	c-2.33,2.23-5.12,2.71-5.12,2.71c0.15,0.46,0.75,1.58,0.75,1.58c2.06,4.02,4.92,7.87,8.55,11.48c6.02,5.98,11.99,9.18,12.24,9.31
	c0.43,0.23,0.9,0.34,1.37,0.34c0.47,0,0.94-0.11,1.37-0.34c0.22-0.11,3.22-1.52,8.71-6.09L87.48,62.04z"/>
<g>
	<path class="st0" d="M81.49,10c-8.43,0-15.94,4.03-20.7,10.27l-0.4,0.55c0,0-0.9,1.27-1.15,1.69c0,0,2.21,0.33,5.03,3.01
		c0,0,0.63-0.97,0.89-1.32c0,0,0.28-0.39,0.49-0.67c3.7-4.68,9.43-7.7,15.84-7.7c11.13,0,20.19,9.06,20.19,20.18
		c0,6.45-2.29,12.64-6.81,18.46c0,0-0.58,0.69-0.88,1l4.24,4.12c0,0,0.45-0.54,0.78-0.97c5.57-6.99,8.49-14.72,8.49-22.61
		C107.51,21.67,95.84,10,81.49,10z"/>
	<path class="st0" d="M63.12,26.99c0.07,0.07,0.15,0.14,0.22,0.22C63.34,27.21,63.26,27.12,63.12,26.99z"/>
	<path class="st0" d="M60.78,20.29c0-0.01,0.01-0.01,0.01-0.02c0,0,0,0,0,0C60.79,20.27,60.78,20.28,60.78,20.29z"/>
</g>
</svg>
